<svg width="53" height="46" viewBox="0 0 53 46" fill="none" xmlns="http://www.w3.org/2000/svg">
<path d="M51.4318 4.32678H47.0191V2.07569C47.0191 1.31047 46.3985 0.691971 45.6316 0.691971C36.2549 0.691971 30.9775 4.99688 27.7185 7.64185V40.78C33.3505 35.0566 43.9718 34.8683 45.5939 34.8683H45.6087C45.98 34.8262 46.3391 34.7327 46.6063 34.4675C46.8719 34.2057 47.0218 33.8527 47.0218 33.4772L47.0214 7.10595H50.0468V35.9936C46.7469 36.2866 37.9782 37.3884 31.0648 41.0838L30.1864 41.5671C28.7626 42.3503 27.7318 42.9178 26.5479 42.9178C25.3528 42.9178 24.3331 42.3523 22.9277 41.5781L22.1094 41.1279C15.1799 37.392 6.3592 36.2865 3.04789 35.994V7.10526H6.07157V33.4765C6.07157 34.2454 6.90257 34.864 7.66782 34.864C9.0459 34.864 19.7218 35.0397 25.3728 40.7795V7.64129C22.1166 4.99632 16.8361 0.691406 7.46178 0.691406C6.69493 0.691406 6.07273 1.30996 6.07273 2.07513V4.32621L1.6559 4.32662C0.890683 4.32662 0.270508 4.94885 0.270508 5.71411V37.2793C0.270508 38.0187 0.846975 38.6263 1.58855 38.6668C1.70008 38.6704 12.8319 39.2816 20.7881 43.5681L21.5807 44C23.217 44.9078 24.6301 45.6914 26.5446 45.6914C28.4444 45.6914 29.9397 44.8661 31.5248 43.9931L32.3722 43.5318C40.3231 39.2779 51.3929 38.6705 51.5027 38.6667C52.2401 38.6283 52.8186 38.0188 52.8186 37.2792L52.8182 5.71303C52.8166 4.94822 52.1997 4.32596 51.4328 4.32596L51.4318 4.32678ZM41.9379 25.3713C38.5465 25.5212 34.5234 27.7948 32.4312 29.1324C32.2572 29.2439 32.0635 29.2971 31.8695 29.2971C31.5255 29.2971 31.1904 29.1287 30.9927 28.8174C30.6798 28.3304 30.8244 27.6882 31.3093 27.3806C33.5773 25.9253 37.9679 23.4654 41.8447 23.2917C42.3827 23.2586 42.9045 23.7109 42.9319 24.2857C42.9576 24.8569 42.5127 25.3471 41.9378 25.3713L41.9379 25.3713ZM41.9379 18.1432C38.5465 18.2968 34.5234 20.5667 32.4312 21.9043C32.2572 22.0159 32.0635 22.069 31.8695 22.069C31.5255 22.069 31.1904 21.9006 30.9927 21.5893C30.6798 21.106 30.8244 20.4601 31.3093 20.1525C33.5773 18.7009 37.9679 16.2373 41.8447 16.0673C42.3827 16.0068 42.9045 16.4865 42.9319 17.0576C42.9576 17.6325 42.5127 18.1194 41.9378 18.1432L41.9379 18.1432ZM41.9379 10.9155C38.5465 11.0691 34.5234 13.3391 32.4312 14.6803C32.2572 14.7919 32.0635 14.845 31.8695 14.845C31.5255 14.845 31.1904 14.673 30.9927 14.3616C30.6798 13.8783 30.8244 13.236 31.3093 12.9248C33.5773 11.4732 37.9679 9.01335 41.8447 8.83962C42.3827 8.80122 42.9045 9.2588 42.9319 9.83363C42.9576 10.4048 42.5127 10.8934 41.9378 10.9155H41.9379ZM11.2419 8.83804C15.1203 9.01372 19.5094 11.472 21.7814 12.9232C22.2627 13.2345 22.4073 13.8768 22.0964 14.3601C21.9007 14.6714 21.562 14.8434 21.2196 14.8434C21.0292 14.8434 20.8335 14.7903 20.6595 14.6787C18.5636 13.339 14.5406 11.0676 11.1508 10.9139C10.5743 10.8935 10.1294 10.4049 10.1552 9.83163C10.1846 9.25721 10.7153 8.80698 11.2424 8.83803L11.2419 8.83804ZM11.2419 16.0657C15.1203 16.2377 19.5094 18.6997 21.7814 20.1509C22.2627 20.4585 22.4073 21.1044 22.0964 21.5877C21.9007 21.8991 21.562 22.0674 21.2196 22.0674C21.0292 22.0674 20.8335 22.0143 20.6595 21.9027C18.5636 20.5668 14.5406 18.2952 11.1508 18.1416C10.578 18.1158 10.1315 17.6309 10.1568 17.0544C10.1846 16.4848 10.7153 16.0126 11.2423 16.0657L11.2419 16.0657ZM11.2419 23.2918C15.1203 23.4675 19.5094 25.9258 21.7814 27.3806C22.2627 27.6883 22.4073 28.3326 22.0964 28.8175C21.9007 29.1288 21.562 29.2971 21.2196 29.2971C21.0292 29.2971 20.8335 29.244 20.6595 29.1325C18.5636 27.7966 14.5406 25.5213 11.1508 25.3713C10.578 25.3456 10.1315 24.857 10.1568 24.2841C10.1846 23.713 10.7153 23.2701 11.2423 23.2917L11.2419 23.2918Z" fill="#D3302F"/>
</svg>
