<svg width="61" height="46" viewBox="0 0 61 46" fill="none" xmlns="http://www.w3.org/2000/svg">
<path d="M59.4889 0.929199H33.5164C32.4033 0.929199 31.4136 1.43192 30.7337 2.21129C30.0537 1.43194 29.064 0.929199 27.9509 0.929199H1.97837C1.4653 0.929199 1.05078 1.34496 1.05078 1.85679V44.5259C1.05078 45.0377 1.4653 45.4535 1.97837 45.4535H59.4889C60.002 45.4535 60.4165 45.0377 60.4165 44.5259V1.85679C60.4165 1.34496 60.002 0.929199 59.4889 0.929199ZM33.5164 2.78438H58.5614V38.0328H33.5164C32.8385 38.0328 32.2095 38.2295 31.6612 38.5484V4.63991C31.6612 3.61667 32.4932 2.78473 33.5164 2.78473V2.78438ZM27.9509 2.78438C28.9741 2.78438 29.8061 3.61632 29.8061 4.63956V38.548C29.2578 38.2291 28.6288 38.0324 27.9509 38.0324H2.90596V2.78403L27.9509 2.78438ZM2.90596 39.888H27.9509C28.9741 39.888 29.8061 40.7199 29.8061 41.7432V43.5983H2.90596V39.888ZM31.6612 43.5983V41.7432C31.6612 40.7199 32.4932 39.888 33.5164 39.888H58.5614V43.5983H31.6612Z" fill="#D3302F"/>
<path fill-rule="evenodd" clip-rule="evenodd" d="M0.8125 1.85684C0.8125 1.21386 1.3333 0.691406 1.97793 0.691406H27.9504C29.0426 0.691406 30.0217 1.14561 30.7332 1.86242C31.4448 1.14559 32.4238 0.691406 33.516 0.691406H59.4885C60.1331 0.691406 60.6539 1.21386 60.6539 1.85684V44.526C60.6539 45.169 60.1331 45.6914 59.4885 45.6914H1.97793C1.3333 45.6914 0.8125 45.169 0.8125 44.526V1.85684ZM1.97793 1.16709C1.59643 1.16709 1.28819 1.47616 1.28819 1.85684V44.526C1.28819 44.9067 1.59643 45.2157 1.97793 45.2157H59.4885C59.87 45.2157 60.1782 44.9067 60.1782 44.526V1.85684C60.1782 1.47616 59.87 1.16709 59.4885 1.16709H33.516C32.4768 1.16709 31.5508 1.63605 30.9124 2.3677L30.7332 2.57312L30.554 2.3677C29.9157 1.63607 28.9896 1.16709 27.9504 1.16709H1.97793ZM2.66768 2.54623L27.9505 2.54659C29.105 2.54659 30.0435 3.48501 30.0435 4.63961V38.9615L29.6861 38.7537C29.1695 38.4532 28.5813 38.2703 27.9504 38.2703H2.66768V2.54623ZM3.14337 3.02193V37.7946H27.9504C28.5309 37.7946 29.0759 37.9296 29.5678 38.1565V4.63961C29.5678 3.74772 28.8423 3.02227 27.9504 3.02227L3.14337 3.02193ZM33.2781 2.56035C32.2352 2.6787 31.423 3.56577 31.423 4.63996V38.9619L31.7804 38.754C32.297 38.4536 32.8852 38.2707 33.516 38.2707H58.7988V2.54659H33.2781V2.56035ZM33.7538 3.02262H33.516C32.6241 3.02262 31.8987 3.74807 31.8987 4.63996V38.1568C32.3906 37.9299 32.9356 37.795 33.516 37.795H58.3231V3.02227L33.7538 3.02262ZM2.66768 39.6502H27.9504C29.105 39.6502 30.0435 40.5886 30.0435 41.7432V43.8362H2.66768V39.6502ZM3.14337 40.1259V43.3605H29.5678V41.7432C29.5678 40.8513 28.8423 40.1259 27.9504 40.1259H3.14337ZM33.516 40.1259C32.6241 40.1259 31.8987 40.8513 31.8987 41.7432V43.3605H58.3231V40.1259H33.516ZM31.423 41.7432C31.423 40.5886 32.3614 39.6502 33.516 39.6502H58.7988V43.8362H31.423V41.7432Z" fill="#D3302F"/>
<path d="M6.61509 24.119H25.1669C25.68 24.119 26.0945 23.7032 26.0945 23.1914V17.6258C26.0945 17.114 25.68 16.6982 25.1669 16.6982H6.61509C6.10202 16.6982 5.6875 17.114 5.6875 17.6258V23.1914C5.6875 23.7032 6.10202 24.119 6.61509 24.119ZM7.54268 18.5534H24.2393V22.2638H7.54268V18.5534Z" fill="#D3302F"/>
<path fill-rule="evenodd" clip-rule="evenodd" d="M5.45117 17.6259C5.45117 16.9829 5.97197 16.4604 6.61661 16.4604H25.1684C25.813 16.4604 26.3338 16.9829 26.3338 17.6259V23.1914C26.3338 23.8344 25.813 24.3569 25.1684 24.3569H6.61661C5.97197 24.3569 5.45117 23.8344 5.45117 23.1914V17.6259ZM6.61661 16.9361C6.2351 16.9361 5.92686 17.2452 5.92686 17.6259V23.1914C5.92686 23.5721 6.2351 23.8812 6.61661 23.8812H25.1684C25.5499 23.8812 25.8581 23.5721 25.8581 23.1914V17.6259C25.8581 17.2452 25.5499 16.9361 25.1684 16.9361H6.61661ZM7.30635 18.3156H24.4787V22.5017H7.30635V18.3156ZM7.78204 18.7913V22.026H24.003V18.7913H7.78204Z" fill="#D3302F"/>
<path d="M6.61509 14.8433H12.1806C12.5322 14.8433 12.8531 14.6449 13.0109 14.3302L16.7213 6.90948C16.865 6.6221 16.85 6.28046 16.6803 6.00674C16.5105 5.73426 16.2127 5.56738 15.891 5.56738H6.61509C6.10202 5.56738 5.6875 5.98314 5.6875 6.49497V13.9157C5.6875 14.4275 6.10202 14.8433 6.61509 14.8433L6.61509 14.8433ZM7.54268 7.42255H14.3903L11.6075 12.9881H7.54268V7.42255Z" fill="#D3302F"/>
<path fill-rule="evenodd" clip-rule="evenodd" d="M5.45117 6.49502C5.45117 5.85204 5.97197 5.32959 6.61661 5.32959H15.8925C16.2971 5.32959 16.6708 5.53944 16.8836 5.88101C17.0971 6.22516 17.116 6.65495 16.9355 7.0159L13.2252 14.4366C13.0271 14.8316 12.6239 15.0812 12.1821 15.0812H6.80888L6.61661 15.0812C5.97197 15.0812 5.45117 14.5587 5.45117 13.9157V6.49502ZM6.61265 14.6055H12.1821C12.4435 14.6055 12.6821 14.4582 12.7997 14.2239C12.7997 14.2238 12.7997 14.2239 12.7997 14.2239L16.51 6.80317C16.617 6.58936 16.6058 6.33545 16.4797 6.13216C16.3529 5.92877 16.1314 5.80528 15.8925 5.80528H6.61661C6.2351 5.80528 5.92686 6.11435 5.92686 6.49502V13.9157C5.92686 14.2951 6.23297 14.6033 6.61265 14.6055ZM7.30635 7.18476H14.7767L11.756 13.226H7.30635V7.18476ZM7.78204 7.66045V12.7503H11.4621L14.007 7.66045H7.78204Z" fill="#D3302F"/>
<path d="M15.1016 14.403C15.2714 14.6759 15.5691 14.8428 15.8909 14.8428H25.1668C25.6798 14.8428 26.0944 14.427 26.0944 13.9152V6.49449C26.0944 5.98266 25.6798 5.56689 25.1668 5.56689H19.6012C19.2497 5.56689 18.9287 5.76525 18.771 6.07996L15.0606 13.5007C14.9169 13.7881 14.9326 14.1293 15.1016 14.403L15.1016 14.403ZM20.1744 7.42203H24.2393V12.9876H17.3916L20.1744 7.42203Z" fill="#D3302F"/>
<path fill-rule="evenodd" clip-rule="evenodd" d="M18.5579 5.97343C18.7559 5.57842 19.159 5.3291 19.6008 5.3291H25.1663C25.811 5.3291 26.3318 5.85156 26.3318 6.49454V13.9153C26.3318 14.5582 25.811 15.0807 25.1663 15.0807H15.8904C15.4858 15.0807 15.112 14.8708 14.8992 14.5287L14.8535 14.4552L14.8543 14.4493C14.6849 14.1205 14.6803 13.7286 14.8474 13.3944L18.5579 5.97343ZM15.1012 14.4031L15.3366 14.4367L15.3488 14.3514L15.3041 14.279C15.431 14.4818 15.6522 14.605 15.8904 14.605H25.1663C25.5478 14.605 25.8561 14.2959 25.8561 13.9153V6.49454C25.8561 6.11386 25.5478 5.80479 25.1663 5.80479H19.6008C19.3394 5.80479 19.1007 5.95214 18.9832 6.18649L15.2729 13.6071C15.1662 13.8205 15.1782 14.0751 15.3041 14.279C15.3043 14.2793 15.3039 14.2787 15.3041 14.279C15.3039 14.2788 15.3033 14.2777 15.3031 14.2774L15.1033 14.4017L15.1012 14.4031ZM20.027 7.18424H24.4767V13.2255H17.0064L20.027 7.18424ZM20.321 7.65993L17.776 12.7498H24.001V7.65993H20.321Z" fill="#D3302F"/>
<path d="M6.61509 35.25H14.0358C14.3576 35.25 14.6553 35.0831 14.8251 34.8102C14.9949 34.5365 15.0098 34.1953 14.8661 33.9075L11.1557 26.4868C10.9979 26.1725 10.677 25.9741 10.3254 25.9741H6.61509C6.10202 25.9741 5.6875 26.3899 5.6875 26.9017V34.3224C5.6875 34.8343 6.10202 35.25 6.61509 35.25L6.61509 35.25ZM7.54268 27.8293H9.75235L12.5351 33.3948H7.54268V27.8293Z" fill="#D3302F"/>
<path fill-rule="evenodd" clip-rule="evenodd" d="M5.45117 26.9018C5.45117 26.2588 5.97197 25.7363 6.6166 25.7363H10.327C10.7687 25.7363 11.1718 25.9856 11.3698 26.3801L15.0803 33.8012C15.2607 34.1624 15.2422 34.5915 15.0287 34.9357C14.8159 35.2777 14.442 35.4879 14.0373 35.4879H6.92123L6.6166 35.4879C5.97197 35.4879 5.45117 34.9655 5.45117 34.3225V26.9018ZM6.6166 26.212C6.2351 26.212 5.92686 26.5211 5.92686 26.9018V34.3225C5.92686 34.7019 6.23309 35.0102 6.61287 35.0122H14.0373C14.2761 35.0122 14.4977 34.8885 14.6245 34.6849C14.7505 34.4817 14.7618 34.2282 14.6549 34.0139M14.6549 34.0139L10.9447 26.5935C10.9446 26.5935 10.9447 26.5936 10.9447 26.5935C10.8271 26.3596 10.5883 26.212 10.327 26.212H6.6166M7.30635 27.5915H9.90086L12.9215 33.6327H7.30635V27.5915ZM7.78204 28.0672V33.157H12.1518L9.60687 28.0672H7.78204Z" fill="#D3302F"/>
<path d="M25.1687 25.9741H14.0376C13.7159 25.9741 13.4181 26.141 13.2484 26.4139C13.0786 26.6876 13.0637 27.0288 13.2074 27.3166L16.9177 34.7374C17.0755 35.0517 17.3964 35.25 17.748 35.25H25.1687C25.6818 35.25 26.0963 34.8343 26.0963 34.3224V26.9017C26.0963 26.3899 25.6818 25.9741 25.1687 25.9741L25.1687 25.9741ZM24.2411 33.3949H18.3211L15.5383 27.8293H24.2411V33.3949Z" fill="#D3302F"/>
<path fill-rule="evenodd" clip-rule="evenodd" d="M24.8383 25.7363H25.1682C25.8129 25.7363 26.3337 26.2588 26.3337 26.9018V34.3225C26.3337 34.9655 25.8129 35.4879 25.1682 35.4879H17.7475C17.3058 35.4879 16.9027 35.2386 16.7047 34.8441L12.9942 27.4231C12.8138 27.0618 12.8323 26.6328 13.0458 26.2886C13.2586 25.9465 13.6325 25.7363 14.0372 25.7363L24.8383 25.7363ZM25.1719 26.212H14.0372C13.7983 26.212 13.5767 26.3358 13.4499 26.5395C13.324 26.7427 13.3127 26.9961 13.4196 27.2103C13.4196 27.2104 13.4196 27.2103 13.4196 27.2103L17.1298 34.6307C17.1298 34.6308 17.1298 34.6307 17.1298 34.6307C17.2473 34.8647 17.4861 35.0122 17.7475 35.0122H25.1682C25.5497 35.0122 25.858 34.7032 25.858 34.3225V26.9018C25.858 26.5223 25.5517 26.214 25.1719 26.212ZM15.153 27.5915H24.4785V33.6327H18.1736L15.153 27.5915ZM15.9227 28.0672L18.4676 33.1571H24.0028V28.0672H15.9227Z" fill="#D3302F"/>
<path d="M54.8499 25.9741H45.574C45.2883 25.9741 45.0183 26.1058 44.8431 26.3311C44.668 26.5563 44.6046 26.8495 44.6742 27.127L46.5294 34.5477C46.6333 34.9606 47.0035 35.25 47.4292 35.25H54.8499C55.363 35.25 55.7775 34.8343 55.7775 34.3224V26.9017C55.7775 26.3899 55.363 25.9741 54.8499 25.9741ZM53.9223 33.3948H48.1535L46.7621 27.8293H53.9223V33.3948Z" fill="#D3302F"/>
<path fill-rule="evenodd" clip-rule="evenodd" d="M44.6569 26.1851C44.8773 25.9017 45.2167 25.7363 45.5755 25.7363H54.8514C55.496 25.7363 56.0168 26.2588 56.0168 26.9018V34.3225C56.0168 34.9655 55.496 35.4879 54.8514 35.4879H47.4307C46.8956 35.4879 46.4307 35.124 46.3002 34.6058L44.445 27.1849C44.3575 26.8357 44.4374 26.4674 44.6569 26.1851ZM45.5755 26.212C45.3629 26.212 45.1623 26.31 45.0324 26.4771C44.9016 26.6454 44.8548 26.8635 44.9064 27.0692L46.7615 34.4897C46.7615 34.4898 46.7615 34.4896 46.7615 34.4897C46.839 34.7971 47.1144 35.0122 47.4307 35.0122H54.8514C55.2329 35.0122 55.5412 34.7032 55.5412 34.3225V26.9018C55.5412 26.5211 55.2329 26.212 54.8514 26.212H45.5755ZM46.459 27.5915H54.1617V33.6327H47.9693L46.459 27.5915ZM47.0682 28.0672L48.3407 33.157H53.686V28.0672H47.0682Z" fill="#D3302F"/>
<path d="M36.2987 35.25H43.7194C43.7261 35.2508 43.7335 35.25 43.7381 35.25C44.2511 35.25 44.6657 34.8342 44.6657 34.3224C44.6657 34.1795 44.6342 34.045 44.5766 33.9245L42.7641 26.6773C42.6601 26.2644 42.2899 25.9741 41.8642 25.9741H36.2987C35.7856 25.9741 35.3711 26.3899 35.3711 26.9017V34.3224C35.3711 34.8343 35.7856 35.25 36.2987 35.25L36.2987 35.25ZM37.2263 27.8293H41.14L42.5314 33.3948H37.2263V27.8293Z" fill="#D3302F"/>
<path fill-rule="evenodd" clip-rule="evenodd" d="M35.1328 26.9018C35.1328 26.2588 35.6536 25.7363 36.2982 25.7363H41.8638C42.3992 25.7363 42.8639 26.1014 42.9943 26.6192L44.8015 33.8449C44.8675 33.9915 44.9031 34.1531 44.9031 34.3225C44.9031 34.9641 44.3844 35.4858 43.7415 35.4879L43.7366 35.4881C43.7321 35.4882 43.7227 35.4885 43.7108 35.4879H36.3844L36.2982 35.4879C35.6536 35.4879 35.1328 34.9655 35.1328 34.3225V26.9018ZM43.7444 35.4878C43.7452 35.4877 43.7451 35.4877 43.7444 35.4878ZM36.2982 26.212C35.9167 26.212 35.6085 26.5211 35.6085 26.9018V34.3225C35.6085 34.7009 35.9131 35.0086 36.2915 35.0122H43.7338H43.7376C44.1191 35.0122 44.4274 34.7031 44.4274 34.3225C44.4274 34.215 44.4038 34.1154 44.3616 34.027L44.3513 34.0054L42.533 26.7354C42.4555 26.4276 42.1798 26.212 41.8638 26.212H36.2982ZM36.988 27.5915H41.3253L42.8356 33.6327H36.988V27.5915ZM37.4637 28.0672V33.157H42.2263L40.9539 28.0672H37.4637Z" fill="#D3302F"/>
<path d="M36.2987 24.1192H41.8642C42.2994 24.1192 42.675 23.8169 42.7703 23.3928L46.4806 6.69622C46.5411 6.42168 46.474 6.13428 46.2988 5.91522C46.122 5.69534 45.8566 5.56738 45.5746 5.56738H36.2987C35.7856 5.56738 35.3711 5.98314 35.3711 6.49497V23.1916C35.3711 23.7034 35.7856 24.1192 36.2987 24.1192H36.2987ZM37.2263 7.42256H44.418L41.1205 22.264H37.2264L37.2263 7.42256Z" fill="#D3302F"/>
<path fill-rule="evenodd" clip-rule="evenodd" d="M35.1328 6.49502C35.1328 5.85204 35.6536 5.32959 36.2982 5.32959H45.5741C45.9287 5.32959 46.2621 5.49057 46.4837 5.76622C46.7038 6.04141 46.7884 6.40271 46.7125 6.74742L43.002 23.4445C42.8825 23.9765 42.4108 24.3571 41.8638 24.3571H36.2982C36.2982 24.3571 36.2982 24.3571 36.2982 24.3571C35.6536 24.3571 35.1328 23.8346 35.1328 23.1916V6.49502ZM36.2982 23.8814H41.8638C42.1871 23.8814 42.4667 23.6568 42.5377 23.3409C42.5378 23.3408 42.5377 23.3409 42.5377 23.3409L46.2479 6.64512C46.2479 6.64511 46.2479 6.64514 46.2479 6.64512C46.2929 6.44086 46.243 6.22693 46.1128 6.06404C45.9808 5.90009 45.7835 5.80528 45.5741 5.80528H36.2982C35.9167 5.80528 35.6085 6.11435 35.6085 6.49502V23.1916C35.6085 23.5723 35.9167 23.8814 36.2982 23.8814C36.2982 23.8814 36.2982 23.8814 36.2982 23.8814ZM36.988 7.18477H44.714L41.3109 22.5019H36.9881L36.988 7.18477ZM37.4637 7.66046L37.4638 22.0262H40.9293L44.1211 7.66046H37.4637Z" fill="#D3302F"/>
<path d="M44.8509 23.7713C45.0269 23.9912 45.2923 24.1192 45.5743 24.1192H54.8502C55.3633 24.1192 55.7778 23.7034 55.7778 23.1916V6.49497C55.7778 5.98314 55.3633 5.56738 54.8502 5.56738H49.2847C48.8495 5.56738 48.4739 5.86968 48.3786 6.29372L44.6683 22.9903C44.6078 23.2649 44.6745 23.5523 44.8509 23.7713V23.7713ZM50.0285 7.42243H53.9226V22.2639H46.7309L50.0285 7.42243Z" fill="#D3302F"/>
<path fill-rule="evenodd" clip-rule="evenodd" d="M48.1481 6.24165C48.2676 5.70959 48.7392 5.32959 49.2862 5.32959H54.8518C55.4964 5.32959 56.0172 5.85204 56.0172 6.49502V23.1916C56.0172 23.8346 55.4964 24.3571 54.8518 24.3571H45.5759C45.2216 24.3571 44.888 24.1963 44.667 23.9203C44.4452 23.6447 44.3617 23.2837 44.4375 22.9392L48.1481 6.24165ZM45.0381 23.6228C45.1691 23.7864 45.3663 23.8814 45.5759 23.8814H54.8518C55.2333 23.8814 55.5415 23.5723 55.5415 23.1916V6.49502C55.5415 6.11435 55.2333 5.80528 54.8518 5.80528H49.2862C48.9629 5.80528 48.6834 6.02974 48.6123 6.34563C48.6123 6.34572 48.6123 6.34554 48.6123 6.34563L44.9021 23.0415C44.9021 23.0416 44.9021 23.0415 44.9021 23.0415C44.8571 23.2461 44.9073 23.4603 45.0381 23.6228ZM49.8392 7.18464H54.162V22.5018H46.4359L49.8392 7.18464ZM50.2208 7.66033L47.0289 22.0261H53.6863V7.66033H50.2208Z" fill="#D3302F"/>
</svg>
