<svg width="47" height="46" viewBox="0 0 47 46" fill="none" xmlns="http://www.w3.org/2000/svg">
<path d="M34.0504 6.27453L37.3786 4.46767C37.8064 4.22987 38.3772 4.37249 38.6147 4.84809C38.8525 5.27593 38.7099 5.84674 38.2343 6.08422L34.9061 7.89108C34.4783 8.12888 33.9075 7.98626 33.67 7.51066C33.4322 7.08282 33.6226 6.51235 34.0504 6.27453V6.27453ZM33.2421 5.13333L35.7147 2.18552C36.0476 1.8051 35.9999 1.28205 35.6195 0.949389C35.2391 0.568973 34.6208 0.6164 34.2882 1.04458L31.8156 3.99239C31.4827 4.3728 31.5304 4.89586 31.9108 5.22851C32.2913 5.60893 32.9091 5.56117 33.2421 5.13333ZM34.6686 10.3158C34.7638 10.7914 35.1917 11.1241 35.6673 11.0767L39.4711 10.6011C39.9941 10.5536 40.3746 10.0306 40.2794 9.50756C40.1842 9.03196 39.7563 8.69931 39.2807 8.74674L35.4769 9.22234C34.9538 9.2701 34.5734 9.74537 34.6686 10.3158V10.3158ZM0.197266 42.1721V39.9848H3.24025V17.3526C3.24025 15.5457 4.66674 14.1196 6.47326 14.1196H7.75711L8.94578 14.1192C8.70797 14.9749 8.70797 15.8309 8.94578 16.6866C8.80316 16.8766 8.70797 17.1144 8.66055 17.3522C8.56536 17.7326 8.51793 18.113 8.56536 18.5409H7.61451V35.6577L15.4595 31.3787C15.9826 31.0934 16.363 30.6656 16.5056 30.0948C16.553 29.857 16.6008 29.667 16.6008 29.5718C16.6008 29.4766 16.5533 29.3817 16.5533 29.2866C16.5059 28.9061 16.5059 28.3831 16.6485 27.8601C16.6485 27.8601 17.5994 25.0071 19.5015 24.2941L17.6943 22.2497L17.2187 22.535C16.1727 23.1054 14.8414 22.725 14.2709 21.6793L13.8905 20.9662L13.32 21.2992C12.987 21.4893 12.5118 21.3466 12.3214 21.014L10.99 18.6367C10.8 18.3037 10.9426 17.8284 11.2753 17.638L11.8457 17.305L11.3701 16.4493C10.7997 15.4033 11.1801 14.072 12.2258 13.5015L17.5035 10.6012L17.9794 11.3139C20.0716 9.64962 23.3523 6.55925 24.6361 2.56533C24.3983 2.08973 24.6361 1.47184 25.1592 1.28148C25.6348 1.09144 26.1578 1.32891 26.3953 1.75709L29.0578 6.60693C30.3417 6.41689 31.673 7.03478 32.3386 8.22344C33.0043 9.45957 32.8142 10.886 31.9582 11.8846L34.6685 16.7819C34.9063 17.2098 34.8112 17.7806 34.4307 18.0658C33.9551 18.3988 33.3373 18.2558 33.0521 17.7805C28.963 16.7345 24.6362 17.828 22.0688 18.7314L22.4966 19.5396L20.5471 20.6331L22.8293 23.1056C23.7801 22.44 25.3966 21.394 26.5853 21.6792C27.964 22.0121 27.8691 23.5335 27.8691 23.5335C27.8691 23.5335 29.8186 23.9613 29.2478 26.1008C29.2478 26.1008 30.8643 27.0517 30.0086 29.0012C30.0086 29.0012 31.7678 30.5702 29.2956 32.6624C28.5825 33.2806 27.5364 33.851 26.5379 34.2789C25.0162 35.1345 23.4475 35.8954 22.4489 36.2758L16.6955 39.4614C16.5529 39.5566 16.2199 39.6992 15.7921 39.937H18.8824V40.1749C18.8824 40.8405 19.4529 41.411 20.1186 41.411H26.2997C26.9654 41.411 27.5358 40.8405 27.5358 40.1749V39.937H38.8044L38.8051 18.4935H36.9034C37.2364 17.59 37.1886 16.5918 36.7133 15.6883L35.8099 14.0718H39.9941C41.7532 14.0718 43.2271 15.4983 43.2271 17.3048V39.937H46.2701V42.1244C46.2701 44.0739 44.6535 45.6904 42.704 45.6904H3.7633C1.76633 45.7381 0.197293 44.1213 0.197293 42.1721L0.197266 42.1721ZM19.4061 18.684L16.6484 13.6442L13.4628 15.4033L16.2205 20.4432L19.4061 18.684Z" fill="#D3302F"/>
</svg>
