<svg width="46" height="46" viewBox="0 0 46 46" fill="none" xmlns="http://www.w3.org/2000/svg">
<path d="M44.0212 18.3682H40.5969C40.1748 16.8953 39.6117 15.517 38.9082 14.2342L41.3475 11.7632C41.9575 11.1454 41.9575 10.1951 41.3475 9.57721L36.7035 4.87283C36.1407 4.25499 35.1555 4.25499 34.5927 4.87283L32.1533 7.34386C30.8867 6.63122 29.5265 6.06078 28.0723 5.68055V2.21216C28.0723 1.357 27.4156 0.691406 26.5711 0.691406H19.9572C19.113 0.691406 18.4559 1.35664 18.4559 2.21216V5.68089C17.0018 6.10848 15.6412 6.67894 14.3749 7.39155L11.9356 4.92052C11.3728 4.30268 10.3876 4.30268 9.82477 4.92052L5.1807 9.6249C4.57079 10.195 4.57079 11.193 5.1807 11.7631L7.62005 14.2342C6.91655 15.5172 6.3066 16.8951 5.97807 18.3681H2.46024C1.61604 18.3681 0.958984 19.0334 0.958984 19.8889V26.5413C0.958984 27.3964 1.66248 28.062 2.46024 28.062H5.8845C6.30661 29.535 6.86976 30.9133 7.57322 32.196L5.18095 34.667C4.57104 35.2372 4.57104 36.2351 5.18095 36.8053L9.82502 41.5096C10.3878 42.1275 11.373 42.1275 11.9358 41.5096L14.3752 39.0386C15.6418 39.7513 17.002 40.3691 18.4562 40.7019V44.1707C18.4562 45.0258 19.1129 45.6914 19.9574 45.6914H26.5245C27.3687 45.6914 28.0258 44.9788 28.0258 44.1707V40.7019C28.5886 40.5594 29.1517 40.3691 29.6206 40.1318L25.1168 35.6173C24.5069 35.7125 23.8502 35.7599 23.2406 35.7599C16.3918 35.7599 10.8567 30.1529 10.8567 23.2151C10.8567 16.2773 16.3918 10.6703 23.2406 10.6703C30.0895 10.6703 35.6246 16.2773 35.6246 23.2151C35.6246 23.8803 35.5778 24.4981 35.4839 25.1156L40.034 29.6775C40.2687 29.1548 40.4094 28.5847 40.5968 28.0142H44.0211C44.8653 28.0142 45.5224 27.349 45.5224 26.4935V19.8411C45.5224 19.0334 44.8657 18.3681 44.0211 18.3681L44.0212 18.3682Z" fill="#D3302F"/>
<path d="M30.8866 25.8288C31.3087 24.5934 31.4026 23.2152 31.168 21.7896C30.652 18.7959 28.3533 16.23 25.4919 15.4223C23.9439 14.9947 22.443 14.9947 21.0824 15.4223C20.5663 15.5648 20.3789 16.23 20.7538 16.6102L23.8499 19.7465C24.9758 20.887 24.9758 22.7402 23.8499 23.9282C22.724 25.0687 20.8946 25.0687 19.7218 23.9282L16.6732 20.7445C16.2979 20.3643 15.6412 20.5545 15.5005 21.0772C15.1251 22.4551 15.0784 23.9758 15.5005 25.544C16.2979 28.4901 18.8312 30.7712 21.7862 31.2939C23.1935 31.5315 24.5537 31.4364 25.7736 31.0088L37.0317 42.4132C37.5945 42.9833 38.4391 42.9833 39.0019 42.4132L42.1448 39.2295C42.7076 38.6594 42.7076 37.8038 42.1448 37.2337L30.8866 25.8288Z" fill="#D3302F"/>
</svg>
