<svg width="51" height="46" viewBox="0 0 51 46" fill="none" xmlns="http://www.w3.org/2000/svg">
<path d="M38.774 10.8579H23.8719C22.6824 10.8579 21.7246 11.8157 21.7246 13.0052C21.7246 14.1947 22.6824 15.1525 23.8719 15.1525H40.011C41.1923 15.1525 42.1583 14.1947 42.1583 13.0052C42.1583 11.824 41.2005 10.8579 40.011 10.8579H38.774Z" fill="#D3302F"/>
<path d="M10.5886 14.9935C10.5886 14.3786 10.2133 13.9633 9.46289 13.7559V16.2871C9.79012 16.2311 10.0539 16.0875 10.2692 15.8479C10.4849 15.6084 10.5886 15.3211 10.5886 14.9935L10.5886 14.9935Z" fill="#D3302F"/>
<path d="M8.50483 9.38965C8.25745 9.4695 8.04963 9.61315 7.88993 9.82097C7.73024 10.0206 7.65039 10.2523 7.65039 10.4918C7.65039 11.0108 7.9377 11.394 8.51267 11.6336V9.38967L8.50483 9.38965Z" fill="#D3302F"/>
<path d="M8.96874 20.9151C13.3909 20.9151 16.9746 17.331 16.9746 12.9092C16.9746 8.48697 13.3909 4.91113 8.96874 4.91113C4.54691 4.91113 0.970703 8.48697 0.970703 12.9092C0.970703 17.331 4.55475 20.9151 8.96874 20.9151ZM5.99151 10.5941C5.99151 9.85187 6.23097 9.24503 6.70205 8.78217C7.17313 8.31928 7.77957 8.04775 8.51401 7.97613V7.33757H9.47185V7.97613C10.1582 8.05595 10.7169 8.28758 11.1402 8.66244C11.5632 9.03766 11.8347 9.56433 11.9463 10.2267L10.27 10.4423C10.1663 9.93132 9.90301 9.58033 9.47184 9.40465V11.935C10.5016 12.2065 11.204 12.5415 11.5711 12.9405C12.0101 13.4195 12.2256 14.0181 12.2256 14.7443C12.2256 15.5585 11.9784 16.221 11.4834 16.7476C10.9884 17.2664 10.3182 17.5936 9.47185 17.7055V18.4798H8.51401V17.7375C6.91761 17.554 5.99188 16.6122 5.72816 14.9278L7.46029 14.7443C7.53228 15.0874 7.65984 15.3828 7.85939 15.6383C8.05111 15.8938 8.27453 16.0773 8.51399 16.1892V13.4754C6.82956 13.0046 5.9915 12.0468 5.9915 10.594L5.99151 10.5941Z" fill="#D3302F"/>
<path d="M6.56641 34.6523V38.4199H12.6804C12.2493 37.0869 12.034 35.778 11.9542 34.6523H6.56641Z" fill="#D3302F"/>
<path d="M2.9668 27.7325H13.2558C13.9902 25.9686 14.9641 24.3401 16.0018 22.9033H2.96698L2.9668 27.7325Z" fill="#D3302F"/>
<path d="M12.6718 29.2969H0.0839844V33.0723H11.9448C12.0246 31.7791 12.2883 30.5102 12.6713 29.2969H12.6718Z" fill="#D3302F"/>
<path d="M13.2795 39.9927H2.9668V45.3485H17.5579C15.4986 43.896 14.1338 41.9721 13.2797 39.9927H13.2795Z" fill="#D3302F"/>
<path d="M20.702 4.8397L24.4535 9.28571H39.4195L43.171 4.8397C43.1871 4.80763 43.2109 4.77591 43.227 4.75204C44.6398 2.3735 41.5586 -0.140871 39.4515 1.66297C37.7753 3.09972 35.2688 3.00385 33.7045 1.43954L33.6885 1.41567C32.7228 0.449985 31.1581 0.449985 30.1925 1.41567L30.1686 1.43954C28.6043 3.00383 26.1056 3.0997 24.4294 1.66297C22.3302 -0.14078 19.2411 2.37351 20.6618 4.75204C20.67 4.77591 20.6857 4.80798 20.7017 4.8397H20.702Z" fill="#D3302F"/>
<path d="M26.5764 30.1982C25.6984 30.1982 25.2832 31.2198 25.2832 32.4891C25.2832 33.8222 25.7382 34.78 26.5924 34.78C27.4384 34.78 27.8456 33.918 27.8456 32.4891C27.8535 31.1959 27.5021 30.1982 26.5764 30.1982Z" fill="#D3302F"/>
<path d="M38.1198 35.4907C37.2179 35.4907 36.8266 36.5123 36.8266 37.7816C36.8106 39.1146 37.2578 40.0725 38.1198 40.0725C38.9579 40.0725 39.373 39.2105 39.373 37.7816C39.3808 36.4884 39.0455 35.4907 38.1198 35.4907Z" fill="#D3302F"/>
<path d="M50.3644 33.2394C49.8616 24.4913 40.4348 17.4186 40.4348 17.4186C40.1793 17.2031 39.9637 16.9636 39.7641 16.7163H24.1112C23.9117 16.9636 23.7043 17.2031 23.4406 17.4186C23.4406 17.4186 14.0137 24.4905 13.511 33.2394C13.511 33.2394 13.0082 43.169 21.9242 45.6913H41.9512C50.875 43.1688 50.3644 33.2394 50.3644 33.2394H50.3644ZM23.0742 32.5688C23.0742 30.2939 24.4632 28.5699 26.6422 28.5699C28.8372 28.5699 30.0666 30.1742 30.0666 32.3536C30.0666 35.0197 28.3825 36.4083 26.5385 36.4083C24.5985 36.408 23.0741 34.9555 23.0741 32.5688H23.0742ZM29.8589 41.7321H27.4882L34.7439 28.6654L32.9958 27.7873L37.0987 26.4304L38.4556 30.5333L36.6119 29.6076L29.8589 41.7321ZM38.0643 41.7004C36.1407 41.7004 34.616 40.2476 34.5999 37.8612C34.5999 35.5863 35.9889 33.8623 38.1679 33.8623C40.3629 33.8623 41.6001 35.4666 41.6001 37.646C41.5923 40.3036 39.9082 41.7004 38.0642 41.7004H38.0643Z" fill="#D3302F"/>
</svg>
