<svg width="46" height="46" viewBox="0 0 46 46" fill="none" xmlns="http://www.w3.org/2000/svg">
<path d="M0.685547 30.024L12.7745 26.2753C12.7745 25.9942 12.6807 25.6192 12.6807 25.3381C12.6807 22.9952 13.3368 20.7461 14.4613 18.8719V0.691895L0.685547 5.00279V30.024Z" fill="#D3302F"/>
<path d="M30.1111 13.7181V5.00279L16.2422 0.691895V16.6228C18.4913 14.2799 21.6776 12.7807 25.2386 12.7807C27.0189 12.7807 28.6123 13.1556 30.1115 13.7179L30.1111 13.7181Z" fill="#D3302F"/>
<path d="M31.7988 5.0023V14.561C35.3598 16.8101 37.7966 20.7461 37.7966 25.2443C37.7966 26.275 37.7027 27.3061 37.4216 28.243L45.6686 25.7127V0.691406L31.7988 5.0023Z" fill="#D3302F"/>
<path d="M44.1696 39.1134L36.9538 33.5845L33.4863 37.052L39.0153 44.2677C40.3272 46.0484 42.9512 46.1419 44.4507 44.6427C46.1376 43.0494 45.9502 40.5191 44.1696 39.1134V39.1134Z" fill="#D3302F"/>
<path d="M35.9232 32.1788L34.4237 30.6793C35.3609 29.0863 35.9232 27.2118 35.9232 25.2438C35.9232 19.3399 31.1438 14.5605 25.2399 14.5605C19.336 14.5605 14.5566 19.3399 14.5566 25.2438C14.5566 31.1477 19.336 35.9271 25.2399 35.9271C27.2079 35.9271 29.082 35.3648 30.6754 34.4276L32.1749 35.9271L35.9232 32.1788ZM17.274 25.3376C17.274 20.9332 20.835 17.3719 25.2397 17.3719C29.6441 17.3719 33.2054 20.9329 33.2054 25.3376C33.2054 29.742 29.6445 33.3033 25.2397 33.3033C20.835 33.2095 17.274 29.6485 17.274 25.3376Z" fill="#D3302F"/>
</svg>
